# xmcd CD database file
#
# Track frame offsets:
#	150
#	50810
#	64575
#	79577
#	118929
#	138992
#	190807
#	206059
#	222155
#	272885
#
# Disc length: 3721 seconds
#
# Revision: 0
# Processed by: cddbd v1.4PL0 Copyright (c) Steve Scherf et al.
# Submitted via: Feurio! 1.65 - http://www.feurio.com
#
DISCID=9b0e870a
DTITLE=Seth Yacovone Blues Band - Yessir!
DYEAR=1900
DGENRE=
TTITLE0=Chunky Baby Crap Brown Haggis On Toast
TTITLE1=Hankey Goes To Hollywood
TTITLE2=Hold On For Awhile
TTITLE3=Don't Tell Me What To Feel
TTITLE4=Py Per View
TTITLE5=All The Pain Throught The Years
TTITLE6=Hick Jam
TTITLE7=Cheer Up
TTITLE8=Tribute To James Rigbery Tenderfoot
TTITLE9=Cheer Up Reprise
EXTD=
EXTT0=
EXTT1=
EXTT2=
EXTT3=
EXTT4=
EXTT5=
EXTT6=
EXTT7=
EXTT8=
EXTT9=
PLAYORDER=
